<svg width="51" height="47" viewBox="0 0 51 47" fill="none" xmlns="http://www.w3.org/2000/svg">
<path d="M25.5001 26.3004C29.1618 26.3004 32.1301 23.5649 32.1301 20.1904C32.1301 16.816 29.1618 14.0804 25.5001 14.0804C21.8385 14.0804 18.8701 16.816 18.8701 20.1904C18.8701 23.5649 21.8385 26.3004 25.5001 26.3004Z" fill="#0A0A0A"/>
<path d="M7.69261 16.6263C11.8789 -0.332914 39.1426 -0.313331 43.3076 16.6458C45.7514 26.5942 39.0364 35.015 33.1501 40.2242C28.8789 44.0233 22.1214 44.0233 17.8289 40.2242C11.9639 35.015 5.24886 26.5746 7.69261 16.6263Z" fill="#0A0A0A"/>
<path d="M25.5001 26.3004C29.1618 26.3004 32.1301 23.5649 32.1301 20.1904C32.1301 16.816 29.1618 14.0804 25.5001 14.0804C21.8385 14.0804 18.8701 16.816 18.8701 20.1904C18.8701 23.5649 21.8385 26.3004 25.5001 26.3004Z" stroke="white" stroke-width="5"/>
<path d="M7.69261 16.6263C11.8789 -0.332914 39.1426 -0.313331 43.3076 16.6458C45.7514 26.5942 39.0364 35.015 33.1501 40.2242C28.8789 44.0233 22.1214 44.0233 17.8289 40.2242C11.9639 35.015 5.24886 26.5746 7.69261 16.6263Z" stroke="white" stroke-width="5"/>
</svg>
