<svg width="22" height="26" viewBox="0 0 22 26" fill="none" xmlns="http://www.w3.org/2000/svg">
<path d="M5.52516 23.2781C5.63397 23.3932 5.7524 23.4852 5.85646 23.5458L5.85887 23.5472C5.87439 23.5561 5.88794 23.5633 5.89883 23.569L5.98571 23.6143H6.08366H15.7559C16.2595 23.6143 16.5309 23.1434 16.5309 22.75V3.25C16.5309 2.85672 16.2595 2.38571 15.7559 2.38571H6.00586C5.50228 2.38571 5.23086 2.85669 5.23086 3.25V22.7292V22.7926L5.25045 22.8529C5.25864 22.878 5.2699 22.9067 5.28524 22.9393L5.28558 22.94C5.33482 23.0438 5.41552 23.1625 5.52516 23.2781ZM5.52516 23.2781L5.81546 23.0036L5.52557 23.2786C5.52543 23.2784 5.5253 23.2783 5.52516 23.2781ZM5.30346 25.3765L5.30344 25.3764C5.08441 25.2493 4.85619 25.0695 4.64626 24.848C4.2559 24.4359 3.78086 23.7128 3.78086 22.75V3.25C3.78086 1.59197 4.85258 0.4 6.00586 0.4H15.7559C16.9091 0.4 17.9809 1.59197 17.9809 3.25V22.75C17.9809 24.408 16.9091 25.6 15.7559 25.6H6.00586C5.76064 25.6 5.5102 25.4965 5.30346 25.3765ZM9.40586 19.5C9.40586 18.8677 9.80602 18.5071 10.1309 18.5071H11.6309C11.9557 18.5071 12.3559 18.8677 12.3559 19.5C12.3559 20.1323 11.9557 20.4929 11.6309 20.4929H10.1309C9.80602 20.4929 9.40586 20.1323 9.40586 19.5Z" fill="black" stroke="white" stroke-width="0.8"/>
</svg>
