<svg width="24" height="25" viewBox="0 0 24 25" fill="none" xmlns="http://www.w3.org/2000/svg">
<path d="M20.1859 21.8056H20.7776L20.6195 21.2353C20.5516 20.9904 20.3823 20.779 20.2027 20.6065C20.0152 20.4264 19.7738 20.2486 19.4974 20.0768C18.9437 19.7327 18.2065 19.3866 17.3672 19.0783C15.6899 18.4622 13.546 17.9759 11.5348 17.9759C9.53088 17.9759 7.39791 18.4585 5.7241 19.0728C4.88646 19.3802 4.14963 19.7257 3.59306 20.0702C3.31521 20.2422 3.07226 20.4201 2.88215 20.6001C2.69934 20.7732 2.52958 20.9815 2.45442 21.2206L2.27048 21.8056H2.88369H20.1859ZM14.8685 6.7074C14.8685 4.85431 13.376 3.32777 11.5348 3.32777C9.69354 3.32777 8.20108 4.85431 8.20108 6.7074C8.20108 8.5605 9.69354 10.087 11.5348 10.087C13.376 10.087 14.8685 8.5605 14.8685 6.7074ZM6.21739 6.7074C6.21739 3.71196 8.6035 1.29814 11.5348 1.29814C14.4661 1.29814 16.8522 3.71196 16.8522 6.7074C16.8522 9.70285 14.4661 12.1167 11.5348 12.1167C8.6035 12.1167 6.21739 9.70285 6.21739 6.7074ZM0.45 21.3556C0.45 20.544 0.84661 19.8016 1.56874 19.1245C2.29419 18.4443 3.32002 17.8591 4.49337 17.3816C6.8411 16.4261 9.66711 15.9463 11.5348 15.9463C13.4024 15.9463 16.2285 16.4261 18.5762 17.3816C19.7495 17.8591 20.7754 18.4443 21.5008 19.1245C22.2229 19.8016 22.6196 20.544 22.6196 21.3556V23.8352H0.45V21.3556Z" fill="black" stroke="white" stroke-width="0.9"/>
</svg>
