<?xml version="1.0" encoding="UTF-8" standalone="no"?>
<!-- Created with Inkscape (http://www.inkscape.org/) -->

<svg
   width="800"
   height="462"
   viewBox="0 0 800 462"
   version="1.1"
   id="svg1"
   inkscape:export-filename="bitmap.png"
   inkscape:export-xdpi="96"
   inkscape:export-ydpi="96"
   inkscape:version="1.3.1 (91b66b0783, 2023-11-16)"
   sodipodi:docname="drawing.svg"
   xmlns:inkscape="http://www.inkscape.org/namespaces/inkscape"
   xmlns:sodipodi="http://sodipodi.sourceforge.net/DTD/sodipodi-0.dtd"
   xmlns="http://www.w3.org/2000/svg"
   xmlns:svg="http://www.w3.org/2000/svg">
  <sodipodi:namedview
     id="namedview1"
     pagecolor="#ffffff"
     bordercolor="#999999"
     borderopacity="1"
     inkscape:showpageshadow="2"
     inkscape:pageopacity="0"
     inkscape:pagecheckerboard="0"
     inkscape:deskcolor="#d1d1d1"
     inkscape:document-units="px"
     inkscape:zoom="0.47902173"
     inkscape:cx="288.08714"
     inkscape:cy="83.50352"
     inkscape:window-width="1920"
     inkscape:window-height="1051"
     inkscape:window-x="-9"
     inkscape:window-y="-9"
     inkscape:window-maximized="1"
     inkscape:current-layer="layer1" />
  <defs
     id="defs1">
    <inkscape:perspective
       sodipodi:type="inkscape:persp3d"
       inkscape:vp_x="188.43749 : 248.7445 : 1"
       inkscape:vp_y="0 : 1000 : 0"
       inkscape:vp_z="759.43628 : 248.7445 : 1"
       inkscape:persp3d-origin="473.93688 : 171.7445 : 1"
       id="perspective12" />
    <symbol
       id="steps"
       viewBox="0 0 367.39063 399.3226">
      <title
         id="title14">Steps</title>
      <path
         d="m 144.58789,11.291347 v 20.74804 h 10.37109 57.47266 10.37109 v -20.74804 h -10.37109 -57.47266 z m -19.28516,37.16406 v 30.98242 h 15.48438 85.8164 15.48438 v -30.98242 h -15.48438 -85.8164 z M 98.45898,102.6351 v 45.22265 h 22.60156 125.26954 22.60156 V 102.6351 H 246.33008 121.06054 Z m -40.60351,82.46484 v 66.76758 h 33.36914 184.9414 33.36914 V 185.09994 H 276.16601 91.22461 Z M 0,301.85971 v 97.46289 h 48.71093 269.96876 48.71093 V 301.85971 H 318.67969 48.71093 Z"
         id="path15" />
      <path
         opacity="0.2"
         d="M 157.39648,3.2744987e-4 A 0.23825481,0.23825481 0 0 0 157.26172,0.05892745 L 144.79101,11.060887 a 0.23825481,0.23825481 0 0 0 0.15625,0.41601 l 77.4961,0.14063 a 0.23825481,0.23825481 0 0 0 0.1582,-0.41602 L 210.19922,0.06088745 A 0.23825481,0.23825481 0 0 0 210.04101,2.874499e-4 h -52.62109 a 0.23825481,0.23825481 0 0 0 -0.0234,0 z M 144.46289,31.596027 a 0.35574709,0.35574709 0 0 0 -0.23633,0.0898 l -18.62109,16.42578 a 0.35574709,0.35574709 0 0 0 0.23437,0.62109 l 115.71094,0.20899 a 0.35574709,0.35574709 0 0 0 0.23828,-0.61914 l -18.51758,-16.63477 a 0.35574709,0.35574709 0 0 0 -0.23828,-0.0918 h -78.57031 z m -18.03711,46.42774 a 0.51930136,0.51930136 0 0 0 -0.34375,0.1289 L 98.89648,102.13119 a 0.51930136,0.51930136 0 0 0 0.34375,0.9082 l 168.9082,0.30469 a 0.51930136,0.51930136 0 0 0 0.34766,-0.9043 L 241.46484,78.156577 a 0.51930136,0.51930136 0 0 0 -0.3457,-0.13281 z M 99.14453,148.76596 a 0.7666725,0.7666725 0 0 0 -0.50781,0.1914 L 58.5039,184.3558 a 0.7666725,0.7666725 0 0 0 0.50586,1.3418 l 249.36914,0.45117 a 0.7666725,0.7666725 0 0 0 0.51368,-1.33594 l -39.90821,-35.84961 a 0.7666725,0.7666725 0 0 0 -0.51172,-0.19726 z M 60.27148,248.82064 a 1.1191493,1.1191493 0 0 0 -0.74023,0.28125 L 0.94726,300.77377 a 1.1191493,1.1191493 0 0 0 0.73828,1.95898 l 364.01563,0.65821 a 1.1191493,1.1191493 0 0 0 0.75,-1.95118 l -58.25586,-52.33203 a 1.1191493,1.1191493 0 0 0 -0.74805,-0.28711 z"
         id="path16" />
    </symbol>
  </defs>
  <g
     inkscape:label="Layer 1"
     inkscape:groupmode="layer"
     id="layer1">
    <text
       xml:space="preserve"
       style="font-style:normal;font-variant:normal;font-weight:bold;font-stretch:normal;font-size:274.261px;line-height:53.4338px;font-family:'GE SS Two';-inkscape-font-specification:'GE SS Two, Bold';font-variant-ligatures:normal;font-variant-caps:normal;font-variant-numeric:normal;font-variant-east-asian:normal;letter-spacing:0.272622px;word-spacing:0.252175px;writing-mode:tb-rl;direction:rtl;text-orientation:sideways;fill:#000000;fill-opacity:0.780392;stroke:#000000;stroke-width:0.272622;stroke-linecap:square;stroke-linejoin:round;stroke-miterlimit:13.4;stroke-opacity:0.995114;paint-order:fill markers stroke"
       x="-325.66394"
       y="635.00043"
       id="text1"
       transform="matrix(0,-0.88954542,1.1241697,0,0,0)"><tspan
         sodipodi:role="line"
         id="tspan1"
         x="-325.66394"
         y="635.00043"
         style="font-style:normal;font-variant:normal;font-weight:bold;font-stretch:normal;font-size:274.261px;font-family:'GE SS Two';-inkscape-font-specification:'GE SS Two, Bold';font-variant-ligatures:normal;font-variant-caps:normal;font-variant-numeric:normal;font-variant-east-asian:normal;fill:#000000;stroke-width:0.272622">إنجاز</tspan></text>
  </g>
</svg>
