<svg width="33" height="31" viewBox="0 0 33 31" fill="none" xmlns="http://www.w3.org/2000/svg">
<path d="M7.49381 17.9025L8.12525 18.3072L8.12706 18.3044L7.49381 17.9025ZM5.91256 20.3696L5.28113 19.9649L5.281 19.9651L5.91256 20.3696ZM7.39756 24.1542L7.17031 24.8689L7.17297 24.8698L7.39756 24.1542ZM25.6438 24.1542L25.4214 23.4379L25.4192 23.4386L25.6438 24.1542ZM27.1288 20.3696L27.7609 19.9659L27.7602 19.9649L27.1288 20.3696ZM25.5476 17.9025L24.9085 18.295L24.9122 18.3012L24.9161 18.3072L25.5476 17.9025ZM19.0713 4.13336L18.874 4.85693C19.1504 4.93232 19.4456 4.84364 19.6347 4.62841C19.8238 4.41319 19.8738 4.10902 19.7635 3.8446L19.0713 4.13336ZM17.7513 3.87503L17.6638 4.61991L17.6665 4.62021L17.7513 3.87503ZM13.9838 4.13336L13.2916 3.8446C13.1813 4.10906 13.2313 4.41328 13.4205 4.6285C13.6097 4.84373 13.905 4.93236 14.1814 4.85687L13.9838 4.13336ZM16.5276 3.00878C11.607 3.00878 7.52756 6.77566 7.52756 11.5088H9.02756C9.02756 7.69106 12.3457 4.50878 16.5276 4.50878V3.00878ZM7.52756 11.5088V15.2417H9.02756V11.5088H7.52756ZM7.52756 15.2417C7.52756 15.5394 7.4568 15.9615 7.32627 16.4032C7.19601 16.844 7.02464 17.2421 6.86056 17.5007L8.12706 18.3044C8.38923 17.8913 8.60974 17.3529 8.76478 16.8282C8.91957 16.3044 9.02756 15.7319 9.02756 15.2417H7.52756ZM6.86238 17.4978L5.28113 19.9649L6.54399 20.7743L8.12524 18.3072L6.86238 17.4978ZM5.281 19.9651C4.67743 20.9074 4.55339 21.963 4.9209 22.8954C5.28595 23.8215 6.09625 24.5274 7.17031 24.8689L7.62481 23.4395C6.91137 23.2126 6.49104 22.7884 6.3164 22.3453C6.14423 21.9085 6.17144 21.356 6.54412 20.7741L5.281 19.9651ZM7.17297 24.8698C13.2454 26.7757 19.7959 26.7757 25.8684 24.8698L25.4192 23.4386C19.6392 25.2527 13.4022 25.2527 7.62215 23.4386L7.17297 24.8698ZM25.8662 24.8705C27.9646 24.2188 28.9558 21.8367 27.7609 19.9659L26.4967 20.7733C27.1169 21.7442 26.6505 23.0562 25.4214 23.4379L25.8662 24.8705ZM27.7602 19.9649L26.179 17.4978L24.9161 18.3072L26.4974 20.7743L27.7602 19.9649ZM26.1867 17.51C26.0261 17.2486 25.8568 16.8474 25.7278 16.4055C25.5984 15.9622 25.5276 15.5397 25.5276 15.2417H24.0276C24.0276 15.7316 24.1355 16.3037 24.2879 16.8259C24.4408 17.3495 24.6565 17.8848 24.9085 18.295L26.1867 17.51ZM25.5276 15.2417V11.5088H24.0276V15.2417H25.5276ZM25.5276 11.5088C25.5276 6.78858 21.4344 3.00878 16.5276 3.00878V4.50878C20.6957 4.50878 24.0276 7.70397 24.0276 11.5088H25.5276ZM19.2686 3.40979C18.8113 3.28507 18.3335 3.18647 17.8362 3.12984L17.6665 4.62021C18.0767 4.66692 18.4788 4.74915 18.874 4.85693L19.2686 3.40979ZM17.8388 3.13014C16.4291 2.96461 15.067 3.06011 13.7862 3.40985L14.1814 4.85687C15.2656 4.56078 16.4335 4.47544 17.6638 4.61991L17.8388 3.13014ZM14.676 4.42212C14.9532 3.75768 15.6619 3.25586 16.5276 3.25586V1.75586C15.0832 1.75586 13.8119 2.59738 13.2916 3.8446L14.676 4.42212ZM16.5276 3.25586C17.3932 3.25586 18.1019 3.75768 18.3791 4.42212L19.7635 3.8446C19.2432 2.59738 17.9719 1.75586 16.5276 1.75586V3.25586ZM19.9026 24.6192C19.9026 26.2927 18.427 27.7442 16.5276 27.7442V29.2442C19.1657 29.2442 21.4026 27.2081 21.4026 24.6192H19.9026ZM16.5276 27.7442C15.5926 27.7442 14.7308 27.379 14.1261 26.8109L13.0991 27.9042C13.9793 28.7311 15.2075 29.2442 16.5276 29.2442V27.7442ZM14.1261 26.8109C13.5221 26.2435 13.1526 25.4549 13.1526 24.6192H11.6526C11.6526 25.9018 12.218 27.0765 13.0991 27.9042L14.1261 26.8109Z" fill="#292D32"/>
</svg>
