<svg width="37" height="37" viewBox="0 0 37 37" fill="none" xmlns="http://www.w3.org/2000/svg">
<path d="M18.7467 16.7579C18.5925 16.7425 18.4075 16.7425 18.2379 16.7579C14.5688 16.6346 11.655 13.6283 11.655 9.92834C11.655 6.15126 14.7075 3.08334 18.5 3.08334C22.2771 3.08334 25.345 6.15126 25.345 9.92834C25.3296 13.6283 22.4159 16.6346 18.7467 16.7579Z" stroke="#292D32" stroke-width="1.5" stroke-linecap="round" stroke-linejoin="round"/>
<path d="M11.0384 22.4467C7.30753 24.9442 7.30753 29.0142 11.0384 31.4963C15.2779 34.3329 22.2309 34.3329 26.4704 31.4963C30.2013 28.9988 30.2013 24.9288 26.4704 22.4467C22.2463 19.6254 15.2934 19.6254 11.0384 22.4467Z" stroke="#292D32" stroke-width="1.5" stroke-linecap="round" stroke-linejoin="round"/>
</svg>
