<svg width="37" height="37" viewBox="0 0 37 37" fill="none" xmlns="http://www.w3.org/2000/svg">
<path d="M18.4999 23.125C21.0542 23.125 23.1249 21.0543 23.1249 18.5C23.1249 15.9457 21.0542 13.875 18.4999 13.875C15.9456 13.875 13.8749 15.9457 13.8749 18.5C13.8749 21.0543 15.9456 23.125 18.4999 23.125Z" stroke="#292D32" stroke-width="1.5" stroke-miterlimit="10" stroke-linecap="round" stroke-linejoin="round"/>
<path d="M3.08325 19.8567V17.1433C3.08325 15.54 4.39367 14.2142 6.01242 14.2142C8.80284 14.2142 9.94367 12.2408 8.54075 9.82042C7.73909 8.43292 8.217 6.62917 9.61992 5.8275L12.287 4.30125C13.5049 3.57667 15.0774 4.00834 15.802 5.22625L15.9716 5.51917C17.3591 7.93959 19.6408 7.93959 21.0437 5.51917L21.2133 5.22625C21.9378 4.00834 23.5103 3.57667 24.7283 4.30125L27.3953 5.8275C28.7983 6.62917 29.2762 8.43292 28.4745 9.82042C27.0716 12.2408 28.2124 14.2142 31.0028 14.2142C32.6062 14.2142 33.932 15.5246 33.932 17.1433V19.8567C33.932 21.46 32.6216 22.7858 31.0028 22.7858C28.2124 22.7858 27.0716 24.7592 28.4745 27.1796C29.2762 28.5825 28.7983 30.3708 27.3953 31.1725L24.7283 32.6988C23.5103 33.4233 21.9378 32.9917 21.2133 31.7738L21.0437 31.4808C19.6562 29.0604 17.3745 29.0604 15.9716 31.4808L15.802 31.7738C15.0774 32.9917 13.5049 33.4233 12.287 32.6988L9.61992 31.1725C8.217 30.3708 7.73909 28.5671 8.54075 27.1796C9.94367 24.7592 8.80284 22.7858 6.01242 22.7858C4.39367 22.7858 3.08325 21.46 3.08325 19.8567Z" stroke="#292D32" stroke-width="1.5" stroke-miterlimit="10" stroke-linecap="round" stroke-linejoin="round"/>
</svg>
