<svg width="26" height="27" viewBox="0 0 26 27" fill="none" xmlns="http://www.w3.org/2000/svg">
<path d="M23.7847 26.2795L16.8522 19.0948V18.0772V17.8808L16.7186 17.737L16.3172 17.3047L15.9836 16.9454L15.6179 17.2719C14.0094 18.7078 11.9262 19.5686 9.66266 19.5686C4.61966 19.5686 0.5 15.3181 0.5 10.0343C0.5 4.75047 4.61966 0.5 9.66266 0.5C14.7057 0.5 18.8253 4.75047 18.8253 10.0343C18.8253 12.4008 17.9905 14.5733 16.6063 16.2455L16.3163 16.5958L16.6376 16.9176L17.0539 17.3344L17.2004 17.4811H17.4077H18.3691L25.3062 24.6995L23.7847 26.2795ZM2.47313 10.0343C2.47313 14.1364 5.66736 17.4811 9.66266 17.4811C13.658 17.4811 16.8522 14.1364 16.8522 10.0343C16.8522 5.93221 13.658 2.58748 9.66266 2.58748C5.66736 2.58748 2.47313 5.93221 2.47313 10.0343Z" fill="black" stroke="white"/>
</svg>
