<svg width="30" height="40" viewBox="0 0 30 40" fill="none" xmlns="http://www.w3.org/2000/svg">
<path d="M6.92857 25.48V25.2098L6.7025 25.0617C2.94873 22.6034 0.5 18.5728 0.5 14C0.5 6.58807 6.97166 0.5 15 0.5C23.0283 0.5 29.5 6.58807 29.5 14C29.5 18.5728 27.0513 22.6034 23.2975 25.0617L23.0714 25.2098V25.48V30C23.0714 30.7919 22.3641 31.5 21.4286 31.5H8.57143C7.63595 31.5 6.92857 30.7919 6.92857 30V25.48ZM19.2857 28.5H19.7857V28V23.6693L21.3796 22.6192C21.38 22.619 21.3805 22.6187 21.3809 22.6184C24.4057 20.6521 26.2143 17.4395 26.2143 14C26.2143 8.17193 21.1574 3.5 15 3.5C8.84262 3.5 3.78571 8.17193 3.78571 14C3.78571 17.4395 5.59431 20.6521 8.61906 22.6184C8.6195 22.6187 8.61995 22.619 8.6204 22.6192L10.2143 23.6693V28V28.5H10.7143H19.2857ZM10.7143 39.5C9.77881 39.5 9.07143 38.7919 9.07143 38V36.5H20.9286V38C20.9286 38.7919 20.2212 39.5 19.2857 39.5H10.7143Z" fill="black" stroke="white"/>
</svg>
